<?xml version="1.0" encoding="UTF-8" standalone="no"?>
<!-- Created with Inkscape (http://www.inkscape.org/) -->

<svg
   xmlns:dc="http://purl.org/dc/elements/1.1/"
   xmlns:cc="http://creativecommons.org/ns#"
   xmlns:rdf="http://www.w3.org/1999/02/22-rdf-syntax-ns#"
   xmlns:svg="http://www.w3.org/2000/svg"
   xmlns="http://www.w3.org/2000/svg"
   version="1.1"
   width="100.00167"
   height="100.00167"
   id="svg2">
  <defs
     id="defs4" />
  <metadata
     id="metadata7">
    <rdf:RDF>
      <cc:Work
         rdf:about="">
        <dc:format>image/svg+xml</dc:format>
        <dc:type
           rdf:resource="http://purl.org/dc/dcmitype/StillImage" />
        <dc:title></dc:title>
      </cc:Work>
    </rdf:RDF>
  </metadata>
  <g
     transform="translate(54.638708,-838.42714)"
     id="layer1">
    <g
       transform="matrix(0.1953125,0,0,0.1953125,-43.966832,755.14174)"
       id="g3199">
      <path
         d="m 722.85715,539.50507 a 307.14285,307.14285 0 1 1 -614.28571,0 307.14285,307.14285 0 1 1 614.28571,0 z"
         transform="matrix(0.59884043,0,0,0.59884042,-47.584917,359.35113)"
         id="path3757"
         style="fill:none;stroke:#d08770;stroke-width:240.69999695;stroke-miterlimit:4;stroke-opacity:1;stroke-dasharray:none" />
      <path
         d="m 307,392 a 239,239 0 1 1 -478,0 239,239 0 1 1 478,0 z"
         transform="matrix(0.7749791,0,0,0.7749791,101.66303,378.63676)"
         id="path3759"
         style="fill:none;stroke:#ebcb8b;stroke-width:18.40049553;stroke-miterlimit:4;stroke-opacity:1;stroke-dasharray:none" />
      <path
         d="m 307,392 a 239,239 0 1 1 -478,0 239,239 0 1 1 478,0 z"
         transform="matrix(0.7749791,0,0,0.7749791,148.66303,425.63676)"
         id="path3765"
         style="fill:none;stroke:#ebcb8b;stroke-width:18.40049553;stroke-miterlimit:4;stroke-opacity:1;stroke-dasharray:none" />
      <path
         d="m 307,392 a 239,239 0 1 1 -478,0 239,239 0 1 1 478,0 z"
         transform="matrix(0.7749791,0,0,0.7749791,148.66303,331.63676)"
         id="path3767"
         style="fill:none;stroke:#ebcb8b;stroke-width:18.40049553;stroke-miterlimit:4;stroke-opacity:1;stroke-dasharray:none" />
      <path
         d="m 307,392 a 239,239 0 1 1 -478,0 239,239 0 1 1 478,0 z"
         transform="matrix(0.7749791,0,0,0.7749791,195.66303,378.63676)"
         id="path3769"
         style="fill:none;stroke:#ebcb8b;stroke-width:18.40049553;stroke-miterlimit:4;stroke-opacity:1;stroke-dasharray:none" />
    </g>
  </g>
</svg>
